<svg width="48" height="48" viewBox="0 0 48 48" fill="none" xmlns="http://www.w3.org/2000/svg">
<path d="M15.5 20C15.5 18.6193 16.6193 17.5 18 17.5H31C32.3807 17.5 33.5 18.6193 33.5 20V46.5H15.5V20Z" stroke="#152C5B" stroke-width="3"/>
<path d="M1.5 4C1.5 2.61929 2.61929 1.5 4 1.5H20C21.3807 1.5 22.5 2.61929 22.5 4V46.5H1.5V4Z" fill="white" stroke="#152C5B" stroke-width="3"/>
<rect x="5" y="6" width="4" height="4" stroke="#FF498B" stroke-width="2"/>
<rect x="5" y="17" width="4" height="4" stroke="#FF498B" stroke-width="2"/>
<rect x="5" y="28" width="4" height="4" stroke="#FF498B" stroke-width="2"/>
<rect x="15" y="6" width="4" height="4" stroke="#FF498B" stroke-width="2"/>
<rect x="15" y="17" width="4" height="4" stroke="#FF498B" stroke-width="2"/>
<rect x="15" y="28" width="4" height="4" stroke="#FF498B" stroke-width="2"/>
<rect x="26" y="23" width="4" height="4" stroke="#FF498B" stroke-width="2"/>
<rect x="26" y="33" width="4" height="4" stroke="#FF498B" stroke-width="2"/>
<path d="M6 38.5C5.17157 38.5 4.5 39.1716 4.5 40C4.5 40.8284 5.17157 41.5 6 41.5V38.5ZM18 41.5C18.8284 41.5 19.5 40.8284 19.5 40C19.5 39.1716 18.8284 38.5 18 38.5V41.5ZM6 41.5H18V38.5H6V41.5Z" fill="#152C5B"/>
</svg>
