<svg width="48" height="48" viewBox="0 0 48 48" fill="none" xmlns="http://www.w3.org/2000/svg">
<path d="M8.35187 20.6667L8.35187 24.5" stroke="#152C5B" stroke-width="3" stroke-linecap="round" stroke-linejoin="round"/>
<mask id="path-2-inside-1" fill="white">
<path d="M10.7037 13C11.256 13 11.7037 13.4477 11.7037 14L11.7037 18.1667C11.7037 20.0178 10.2031 21.5185 8.35187 21.5185C6.50068 21.5185 5 20.0178 5 18.1666L5 14C5 13.4477 5.44771 13 6 13L10.7037 13Z"/>
</mask>
<path d="M10.7037 13C11.256 13 11.7037 13.4477 11.7037 14L11.7037 18.1667C11.7037 20.0178 10.2031 21.5185 8.35187 21.5185C6.50068 21.5185 5 20.0178 5 18.1666L5 14C5 13.4477 5.44771 13 6 13L10.7037 13Z" fill="white" stroke="#152C5B" stroke-width="6" mask="url(#path-2-inside-1)"/>
<path d="M39.6481 20.6667L39.6481 24.5" stroke="#152C5B" stroke-width="3" stroke-linecap="round" stroke-linejoin="round"/>
<mask id="path-4-inside-2" fill="white">
<path d="M42 13C42.5523 13 43 13.4477 43 14L43 18.1667C43 20.0178 41.4993 21.5185 39.6481 21.5185C37.7969 21.5185 36.2963 20.0178 36.2963 18.1666L36.2963 14C36.2963 13.4477 36.744 13 37.2963 13L42 13Z"/>
</mask>
<path d="M42 13C42.5523 13 43 13.4477 43 14L43 18.1667C43 20.0178 41.4993 21.5185 39.6481 21.5185C37.7969 21.5185 36.2963 20.0178 36.2963 18.1666L36.2963 14C36.2963 13.4477 36.744 13 37.2963 13L42 13Z" fill="white" stroke="#152C5B" stroke-width="6" mask="url(#path-4-inside-2)"/>
<mask id="path-5-inside-3" fill="white">
<path d="M11 31C11.5523 31 12 31.4477 12 32L12 44C12 46.2091 10.2091 48 8 48C5.79086 48 4 46.2091 4 44L4 32C4 31.4477 4.44772 31 5 31L11 31Z"/>
</mask>
<path d="M11 31C11.5523 31 12 31.4477 12 32L12 44C12 46.2091 10.2091 48 8 48C5.79086 48 4 46.2091 4 44L4 32C4 31.4477 4.44772 31 5 31L11 31Z" fill="white" stroke="#152C5B" stroke-width="6" mask="url(#path-5-inside-3)"/>
<mask id="path-6-inside-4" fill="white">
<path d="M43 31C43.5523 31 44 31.4477 44 32L44 44C44 46.2091 42.2091 48 40 48C37.7909 48 36 46.2091 36 44L36 32C36 31.4477 36.4477 31 37 31L43 31Z"/>
</mask>
<path d="M43 31C43.5523 31 44 31.4477 44 32L44 44C44 46.2091 42.2091 48 40 48C37.7909 48 36 46.2091 36 44L36 32C36 31.4477 36.4477 31 37 31L43 31Z" fill="white" stroke="#152C5B" stroke-width="6" mask="url(#path-6-inside-4)"/>
<mask id="path-7-inside-5" fill="white">
<path d="M35 21C35.5523 21 36 21.4477 36 22L36 23.3846C36 25.9336 33.9336 28 31.3846 28C28.8356 28 26.7692 25.9336 26.7692 23.3846L26.7692 22C26.7692 21.4477 27.2169 21 27.7692 21L35 21Z"/>
</mask>
<path d="M35 21C35.5523 21 36 21.4477 36 22L36 23.3846C36 25.9336 33.9336 28 31.3846 28C28.8356 28 26.7692 25.9336 26.7692 23.3846L26.7692 22C26.7692 21.4477 27.2169 21 27.7692 21L35 21Z" fill="white" stroke="#FF498B" stroke-width="6" mask="url(#path-7-inside-5)"/>
<mask id="path-8-inside-6" fill="white">
<path d="M20.2308 21C20.7831 21 21.2308 21.4477 21.2308 22L21.2308 23.3846C21.2308 25.9336 19.1644 28 16.6154 28C14.0664 28 12 25.9336 12 23.3846L12 22C12 21.4477 12.4477 21 13 21L20.2308 21Z"/>
</mask>
<path d="M20.2308 21C20.7831 21 21.2308 21.4477 21.2308 22L21.2308 23.3846C21.2308 25.9336 19.1644 28 16.6154 28C14.0664 28 12 25.9336 12 23.3846L12 22C12 21.4477 12.4477 21 13 21L20.2308 21Z" fill="white" stroke="#FF498B" stroke-width="6" mask="url(#path-8-inside-6)"/>
<path d="M1.5 29C1.5 27.6193 2.61929 26.5 4 26.5H44C45.3807 26.5 46.5 27.6193 46.5 29V30C46.5 31.3807 45.3807 32.5 44 32.5H4C2.61929 32.5 1.5 31.3807 1.5 30V29Z" fill="white" stroke="#152C5B" stroke-width="3"/>
<path d="M24.4437 40.8929C24.257 41.2522 23.743 41.2522 23.5563 40.8929L16.4571 27.2305C16.2842 26.8977 16.5257 26.5 16.9008 26.5L31.0992 26.5C31.4743 26.5 31.7158 26.8977 31.5429 27.2305L24.4437 40.8929Z" fill="white" stroke="#152C5B" stroke-width="3"/>
</svg>
