<svg width="48" height="48" viewBox="0 0 48 48" fill="none" xmlns="http://www.w3.org/2000/svg">
<rect width="48" height="48" fill="white"/>
<path fill-rule="evenodd" clip-rule="evenodd" d="M45 37V19C45 18.2044 44.6839 17.4413 44.1213 16.8787C43.5587 16.3161 42.7956 16 42 16H38.484C36.0983 15.9987 33.8107 15.0502 32.124 13.363L29.634 10.879C29.073 10.3178 28.3125 10.0018 27.519 10H20.484C19.6884 10.0002 18.9255 10.3164 18.363 10.879L15.879 13.363C14.1916 15.0509 11.9028 15.9995 9.516 16H6C5.20435 16 4.44129 16.3161 3.87868 16.8787C3.31607 17.4413 3 18.2044 3 19V37C3 37.7956 3.31607 38.5587 3.87868 39.1213C4.44129 39.6839 5.20435 40 6 40H42C42.7956 40 43.5587 39.6839 44.1213 39.1213C44.6839 38.5587 45 37.7956 45 37ZM6 13C4.4087 13 2.88258 13.6321 1.75736 14.7574C0.632141 15.8826 0 17.4087 0 19L0 37C0 38.5913 0.632141 40.1174 1.75736 41.2426C2.88258 42.3679 4.4087 43 6 43H42C43.5913 43 45.1174 42.3679 46.2426 41.2426C47.3679 40.1174 48 38.5913 48 37V19C48 17.4087 47.3679 15.8826 46.2426 14.7574C45.1174 13.6321 43.5913 13 42 13H38.484C36.8928 12.9997 35.367 12.3673 34.242 11.242L31.758 8.758C30.633 7.6327 29.1072 7.00034 27.516 7H20.484C18.8928 7.00034 17.367 7.6327 16.242 8.758L13.758 11.242C12.633 12.3673 11.1072 12.9997 9.516 13H6Z" fill="#152C5B"/>
<mask id="path-2-inside-1" fill="white">
<path fill-rule="evenodd" clip-rule="evenodd" d="M24 33.2857C25.705 33.2857 27.3401 32.5708 28.5457 31.2982C29.7513 30.0257 30.4286 28.2997 30.4286 26.5C30.4286 24.7003 29.7513 22.9743 28.5457 21.7018C27.3401 20.4292 25.705 19.7143 24 19.7143C22.295 19.7143 20.6599 20.4292 19.4543 21.7018C18.2487 22.9743 17.5714 24.7003 17.5714 26.5C17.5714 28.2997 18.2487 30.0257 19.4543 31.2982C20.6599 32.5708 22.295 33.2857 24 33.2857ZM24 36C26.3869 36 28.6761 34.9991 30.364 33.2175C32.0518 31.4359 33 29.0196 33 26.5C33 23.9804 32.0518 21.5641 30.364 19.7825C28.6761 18.0009 26.3869 17 24 17C21.6131 17 19.3239 18.0009 17.636 19.7825C15.9482 21.5641 15 23.9804 15 26.5C15 29.0196 15.9482 31.4359 17.636 33.2175C19.3239 34.9991 21.6131 36 24 36Z"/>
</mask>
<path d="M24 19.7143V16.7143V19.7143ZM17.5714 26.5H14.5714H17.5714ZM15 26.5H12H15ZM24 36.2857C26.5546 36.2857 28.9694 35.213 30.7235 33.3615L26.3678 29.235C25.7108 29.9285 24.8554 30.2857 24 30.2857V36.2857ZM30.7235 33.3615C32.4725 31.5154 33.4286 29.0446 33.4286 26.5H27.4286C27.4286 27.5548 27.0301 28.5359 26.3678 29.235L30.7235 33.3615ZM33.4286 26.5C33.4286 23.9554 32.4725 21.4846 30.7235 19.6385L26.3678 23.765C27.0301 24.4641 27.4286 25.4452 27.4286 26.5H33.4286ZM30.7235 19.6385C28.9694 17.787 26.5546 16.7143 24 16.7143V22.7143C24.8554 22.7143 25.7108 23.0715 26.3678 23.765L30.7235 19.6385ZM24 16.7143C21.4454 16.7143 19.0306 17.787 17.2765 19.6385L21.6322 23.765C22.2892 23.0715 23.1446 22.7143 24 22.7143V16.7143ZM17.2765 19.6385C15.5275 21.4846 14.5714 23.9554 14.5714 26.5H20.5714C20.5714 25.4452 20.9699 24.4641 21.6322 23.765L17.2765 19.6385ZM14.5714 26.5C14.5714 29.0446 15.5275 31.5154 17.2765 33.3615L21.6322 29.235C20.9699 28.5359 20.5714 27.5548 20.5714 26.5H14.5714ZM17.2765 33.3615C19.0306 35.213 21.4454 36.2857 24 36.2857V30.2857C23.1446 30.2857 22.2892 29.9285 21.6322 29.235L17.2765 33.3615ZM24 39C27.2365 39 30.3054 37.6414 32.5418 35.2807L28.1861 31.1543C27.0468 32.3569 25.5374 33 24 33V39ZM32.5418 35.2807C34.773 32.9256 36 29.7644 36 26.5H30C30 28.2747 29.3306 29.9462 28.1861 31.1543L32.5418 35.2807ZM36 26.5C36 23.2356 34.773 20.0744 32.5418 17.7193L28.1861 21.8457C29.3306 23.0538 30 24.7253 30 26.5H36ZM32.5418 17.7193C30.3054 15.3586 27.2365 14 24 14V20C25.5374 20 27.0468 20.6431 28.1861 21.8457L32.5418 17.7193ZM24 14C20.7635 14 17.6946 15.3586 15.4582 17.7193L19.8139 21.8457C20.9532 20.6431 22.4626 20 24 20V14ZM15.4582 17.7193C13.227 20.0744 12 23.2356 12 26.5H18C18 24.7253 18.6694 23.0538 19.8139 21.8457L15.4582 17.7193ZM12 26.5C12 29.7644 13.227 32.9256 15.4582 35.2807L19.8139 31.1543C18.6694 29.9462 18 28.2747 18 26.5H12ZM15.4582 35.2807C17.6946 37.6414 20.7635 39 24 39V33C22.4626 33 20.9532 32.3569 19.8139 31.1543L15.4582 35.2807Z" fill="#FF498B" mask="url(#path-2-inside-1)"/>
<circle cx="7" cy="20" r="1.5" transform="rotate(-180 7 20)" stroke="#152C5B"/>
</svg>
