<svg width="48" height="48" viewBox="0 0 48 48" fill="none" xmlns="http://www.w3.org/2000/svg">
<g clip-path="url(#clip0)">
<path d="M41.0187 11.8868C29.419 3.43977 12.581 3.43977 0.981258 11.8868L0 12.6106L4.32986 18.5818L5.32514 17.857C14.4077 11.2431 27.5923 11.2431 36.6749 17.857L37.6701 18.5818L42 12.6106L41.0187 11.8868ZM37.1111 15.1664C32.4989 12.1298 26.8272 10.4689 21 10.4689C15.1728 10.4689 9.50111 12.1299 4.8889 15.1665L3.43941 13.1734C13.8086 6.27403 28.1914 6.27403 38.5607 13.1734L37.1111 15.1664Z" fill="#152C5B"/>
<path d="M35.2284 19.8485C31.2788 16.9726 26.2257 15.3888 21 15.3888C15.7743 15.3888 10.7212 16.9725 6.77176 19.8485L5.77762 20.5724L10.1202 26.5435L11.1156 25.8188C16.6582 21.7827 25.3419 21.7827 30.8846 25.8188L31.88 26.5435L36.2225 20.5724L35.2284 19.8485ZM31.3114 23.141C28.2694 21.2473 24.6349 20.3007 21 20.3007C17.3651 20.3007 13.7306 21.2473 10.6886 23.141L9.23786 21.1462C16.1525 16.7634 25.8475 16.7634 32.762 21.1462L31.3114 23.141Z" fill="#152C5B"/>
<path d="M29.4379 27.8102C24.7064 24.3649 17.2936 24.3649 12.5621 27.8102L11.568 28.534L15.9105 34.5052L16.9058 33.7804C19.0486 32.22 22.9514 32.22 25.0942 33.7804L26.0895 34.5052L30.432 28.534L29.4379 27.8102ZM25.4861 31.1507C24.1552 30.4837 22.5776 30.1501 21 30.1501C19.4224 30.1501 17.8447 30.4837 16.5139 31.1507L15.0516 29.1401C18.5589 27.2133 23.4412 27.2133 26.9485 29.1401L25.4861 31.1507Z" fill="#152C5B"/>
<path d="M21 35.0657C18.9646 35.0657 17.3086 36.7217 17.3086 38.7571C17.3086 40.7925 18.9646 42.4485 21 42.4485C23.0354 42.4485 24.6914 40.7925 24.6914 38.7571C24.6914 36.7217 23.0354 35.0657 21 35.0657ZM21 39.9876C20.3215 39.9876 19.7695 39.4356 19.7695 38.7571C19.7695 38.0786 20.3215 37.5266 21 37.5266C21.6785 37.5266 22.2305 38.0786 22.2305 38.7571C22.2305 39.4356 21.6785 39.9876 21 39.9876Z" fill="#FF498B"/>
</g>
<defs>
<clipPath id="clip0">
<rect width="48" height="48" fill="white"/>
</clipPath>
</defs>
</svg>
